<?xml version="1.0" standalone="no"?>
<!DOCTYPE svg PUBLIC "-//W3C//DTD SVG 20010904//EN"
 "http://www.w3.org/TR/2001/REC-SVG-20010904/DTD/svg10.dtd">
<svg version="1.0" xmlns="http://www.w3.org/2000/svg"
 width="1024.000000pt" height="1024.000000pt" viewBox="0 0 1024.000000 1024.000000"
 preserveAspectRatio="xMidYMid meet">

<g transform="translate(0.000000,1024.000000) scale(0.100000,-0.100000)"
fill="#000000" stroke="none">
<path d="M0 5120 l0 -5120 5120 0 5120 0 0 5120 0 5120 -5120 0 -5120 0 0
-5120z m2119 1706 c138 -37 215 -142 210 -288 l-2 -67 536 -543 537 -543 0
-167 c0 -93 -4 -168 -8 -168 -11 0 -57 50 -71 77 -6 12 -11 64 -11 115 l-1 93
-513 520 -513 519 -39 -33 c-40 -36 -107 -70 -136 -71 -17 0 -18 -47 -18 -853
l0 -854 42 -12 c210 -63 271 -338 107 -485 -76 -69 -201 -91 -293 -51 -57 24
-132 100 -153 153 -57 147 21 326 163 372 l34 12 0 862 0 863 -42 12 c-64 20
-142 104 -164 176 -49 171 52 336 225 365 25 4 48 8 51 9 3 0 29 -6 59 -13z
m1765 -47 c147 -37 233 -212 177 -361 -26 -67 -90 -131 -150 -149 l-41 -12 0
-857 0 -856 33 -12 c50 -18 100 -65 132 -123 24 -45 29 -66 30 -124 1 -291
-375 -378 -494 -115 -23 50 -28 159 -11 205 13 35 24 22 -363 415 -593 602
-671 680 -674 680 -2 0 -3 -24 -3 -52 0 -69 -12 -89 -38 -65 -26 24 -43 87
-49 182 -3 44 -10 86 -16 93 -7 8 -5 12 7 12 9 0 16 8 16 20 0 11 5 20 11 20
7 0 149 -141 317 -312 168 -172 432 -440 586 -595 l281 -282 67 32 68 32 0
853 c0 815 -1 852 -18 852 -10 0 -39 13 -64 29 -145 92 -171 288 -53 418 65
73 150 97 249 72z m4771 -305 c70 -25 135 -93 158 -165 31 -99 31 -99 -73 -99
-79 0 -90 2 -90 18 0 36 -38 80 -84 97 -55 21 -166 16 -215 -9 -89 -47 -80
-161 17 -202 20 -8 93 -28 162 -44 171 -41 222 -63 269 -117 97 -110 70 -323
-53 -411 -100 -72 -319 -89 -476 -37 -93 31 -170 127 -186 233 l-7 42 90 0 91
0 5 -29 c8 -41 52 -88 95 -102 48 -17 176 -17 224 0 49 16 98 73 98 112 0 84
-55 118 -250 158 -242 49 -323 122 -324 290 0 60 4 86 22 123 37 76 123 138
215 158 67 14 255 5 312 -16z m-3690 -51 c10 -32 53 -199 96 -372 44 -173 80
-316 82 -317 2 -2 18 58 36 134 18 75 60 244 94 375 l61 238 105 -3 105 -3 88
-345 c48 -190 89 -360 90 -377 2 -33 18 -47 18 -17 0 13 138 583 171 707 l10
37 95 0 96 0 -6 -27 c-22 -89 -165 -626 -207 -779 l-51 -180 -108 -1 -109 -1
-20 66 c-43 144 -161 588 -161 609 0 12 -4 25 -10 28 -5 3 -10 -3 -10 -14 0
-19 -73 -294 -152 -571 l-33 -115 -110 -1 -110 -2 -44 157 c-58 207 -221 814
-221 824 0 4 42 7 94 7 l95 0 16 -57z m1738 -15 c15 -40 70 -197 122 -348 117
-334 182 -518 195 -547 9 -21 8 -22 -99 -22 l-108 0 -33 105 -34 104 -195 0
-196 0 -32 -104 -33 -103 -103 0 -103 -1 59 172 c33 94 109 316 170 494 l110
322 127 0 127 0 26 -72z m841 -280 c116 -185 212 -335 214 -333 2 2 -1 12 -7
23 -7 14 -11 131 -11 341 l0 321 95 0 95 0 -2 -492 -3 -493 -94 0 -94 0 -156
247 c-86 136 -180 285 -208 330 l-52 83 -1 -331 0 -332 -90 0 -90 -1 0 492 0
492 97 -5 97 -5 210 -337z m-1002 -909 c129 -28 247 -120 298 -232 38 -84 50
-150 50 -265 0 -110 -18 -200 -55 -273 -27 -52 -90 -129 -107 -129 -5 0 3 11
19 24 137 116 176 455 75 653 -22 42 -101 134 -102 117 0 -5 14 -23 31 -40 32
-30 84 -124 69 -124 -5 0 -12 5 -16 11 -3 6 -16 8 -29 5 -21 -5 -24 -1 -31 42
-4 26 -7 51 -5 55 1 5 -3 6 -8 2 -6 -3 -7 -13 -4 -22 4 -9 2 -14 -3 -11 -5 4
-9 -9 -9 -28 0 -19 4 -34 9 -34 4 0 6 9 3 20 -3 11 -1 20 4 20 5 0 9 -11 9
-24 0 -26 -22 -40 -37 -25 -6 6 -10 4 -10 -5 0 -8 4 -13 9 -10 4 3 8 -3 8 -13
0 -14 -8 -10 -31 17 l-30 35 22 -46 c25 -53 49 -60 50 -15 0 29 1 29 9 8 6
-14 5 -32 -2 -50 -6 -15 -11 -83 -12 -152 -2 -142 -21 -207 -80 -276 -18 -21
-35 -43 -37 -49 -2 -5 -7 -9 -12 -7 -4 1 -26 -8 -50 -20 -34 -18 -59 -22 -132
-23 -79 0 -97 3 -148 28 -32 16 -71 46 -89 68 -17 21 -34 37 -37 34 -4 -2 -7
4 -8 13 -1 9 -9 37 -19 62 -11 29 -19 83 -22 150 -3 87 0 115 16 165 19 57 19
96 0 61 -5 -9 -7 -20 -4 -25 6 -9 -17 -8 -52 4 l-22 7 25 47 c20 36 22 41 6
23 -13 -15 -25 -21 -33 -16 -9 6 -9 3 1 -9 9 -11 10 -17 2 -17 -6 0 -11 -6
-11 -14 0 -8 -4 -17 -10 -21 -5 -3 -8 7 -5 25 2 17 0 28 -5 25 -5 -3 -6 -13
-3 -23 5 -13 3 -14 -7 -6 -13 13 -4 58 11 49 5 -3 6 0 4 8 -3 7 6 25 19 40 14
15 24 29 23 30 -4 5 79 75 108 90 96 49 297 65 415 33 30 -8 57 -13 59 -11 8
8 -108 35 -172 40 -210 15 -394 -70 -466 -217 -93 -188 -78 -451 33 -609 31
-43 32 -47 7 -19 -76 87 -111 199 -111 355 0 262 102 416 320 486 65 21 230
25 312 8z m-1266 -276 c97 -153 202 -315 231 -361 30 -46 53 -88 50 -95 -2 -7
-12 4 -22 23 -31 61 -87 140 -95 135 -4 -3 -7 3 -6 13 0 9 -4 16 -11 15 -8 -2
-10 4 -6 14 4 10 2 14 -4 10 -5 -3 -10 0 -10 7 0 15 -41 86 -50 86 -3 0 -2 -8
1 -17 4 -10 -5 -4 -19 12 -16 17 -24 23 -21 13 7 -23 3 -23 -19 2 -18 20 -18
21 1 14 17 -7 17 -6 5 9 -7 9 -9 17 -3 17 5 0 17 -12 27 -26 31 -48 26 -17 -6
35 -26 41 -35 49 -46 40 -7 -7 -16 -9 -20 -5 -3 3 -1 6 5 6 9 0 9 5 0 19 -7
11 -15 18 -19 15 -4 -2 -10 0 -14 5 -3 6 3 8 15 6 11 -2 20 -1 20 2 0 4 -37
64 -82 134 l-83 128 -92 0 c-90 1 -93 0 -92 -21 1 -17 2 -19 6 -5 4 14 17 17
88 17 l83 0 32 -50 c32 -50 33 -82 2 -59 -13 10 -13 9 1 -7 14 -15 19 -16 26
-5 11 18 23 -2 15 -26 -4 -13 -3 -14 4 -5 7 10 17 1 40 -36 28 -46 29 -50 11
-47 -36 7 -109 -34 -109 -60 0 -5 4 -4 8 3 7 9 13 8 27 -8 19 -21 8 -29 -13
-8 -20 20 -13 -5 9 -32 14 -16 19 -19 15 -8 -3 10 -2 17 2 17 21 -3 32 2 26
13 -5 7 -3 8 5 3 9 -5 7 -13 -9 -30 -21 -22 -20 -52 1 -39 5 3 7 9 4 14 -3 5
-1 11 4 14 10 7 9 -20 -2 -30 -12 -12 -8 -26 6 -17 20 12 34 12 34 -2 0 -8 -9
-12 -19 -10 -12 3 -18 -1 -15 -8 3 -7 9 -11 15 -10 6 2 16 -7 23 -18 8 -15 8
-19 0 -15 -16 11 -13 -1 8 -32 11 -15 31 -46 45 -70 16 -25 31 -40 38 -36 7 4
8 3 4 -5 -9 -14 122 -223 135 -215 5 3 6 -1 4 -8 -3 -8 12 -40 34 -71 22 -31
37 -57 33 -57 -4 0 -38 48 -76 108 -221 342 -356 556 -356 565 0 5 16 24 35
43 19 18 35 35 35 39 0 3 -15 -8 -32 -24 -18 -17 -37 -31 -43 -31 -7 0 -9
-121 -7 -350 1 -192 -1 -350 -5 -350 -4 0 -9 159 -11 353 l-3 352 28 18 c15
10 20 16 11 13 -12 -3 -18 2 -21 17 -4 19 -4 18 -6 -4 0 -15 -8 -30 -17 -33
-10 -4 -13 -13 -9 -28 3 -13 3 -18 -2 -13 -4 6 -17 10 -28 10 -14 0 -19 6 -17
18 2 10 -4 29 -12 42 -21 32 -20 38 4 30 11 -4 20 -2 20 4 0 6 -11 11 -24 11
-14 0 -28 5 -31 10 -3 6 -11 10 -16 10 -6 0 -3 -7 5 -16 9 -8 16 -22 16 -30 0
-8 4 -14 9 -14 5 0 4 -13 -2 -30 -6 -16 -15 -30 -20 -30 -5 0 -6 -9 -2 -20 5
-15 3 -18 -9 -14 -19 7 -22 44 -3 44 9 0 9 2 0 8 -7 4 -13 47 -16 105 -3 55
-7 101 -10 103 -2 2 -5 -204 -6 -458 -1 -254 -4 -464 -6 -467 -3 -2 -5 221 -5
497 l0 502 99 0 99 0 178 -277z m454 -218 c0 -272 -3 -495 -7 -495 -5 0 -8
114 -8 253 0 138 -2 322 -5 407 l-6 155 -4 -125 c-2 -69 -5 -105 -7 -80 -5 54
-26 80 -65 80 -28 0 -37 13 -18 25 6 4 8 11 5 16 -9 13 -23 11 -22 -3 0 -7 -1
-29 -3 -48 -2 -19 -7 15 -10 75 -5 93 -7 74 -10 -125 -2 -129 -4 -259 -4 -288
1 -31 -3 -47 -8 -40 -4 7 -8 165 -8 351 l0 337 90 0 90 0 0 -495z m1870 475
c198 -45 314 -193 327 -421 11 -193 -49 -366 -156 -445 -30 -23 -29 -20 11 19
92 89 132 208 132 382 0 107 -8 155 -40 230 -23 57 -26 36 -3 -25 22 -59 15
-75 -28 -59 -33 12 -32 12 -43 -13 -7 -19 -9 -20 -9 -5 -1 10 -7 25 -15 33
-13 12 -14 9 -9 -23 6 -36 5 -37 -12 -23 -17 14 -17 13 -9 -20 15 -62 6 -204
-16 -262 -23 -61 -23 -61 -10 -53 6 3 7 -1 3 -10 -4 -12 -8 -13 -13 -5 -11 17
-22 -4 -14 -27 4 -12 3 -14 -3 -5 -7 10 -14 8 -29 -9 -10 -12 -41 -33 -69 -47
-46 -25 -61 -27 -199 -30 -117 -3 -150 -1 -157 10 -5 7 -9 155 -9 329 0 251
-3 319 -13 328 -10 8 -14 7 -14 -4 0 -8 4 -12 9 -9 4 3 7 -34 5 -82 -2 -58 -7
-89 -15 -92 -7 -2 -12 1 -12 7 0 6 5 11 10 11 6 0 10 5 10 10 0 6 -11 3 -25
-6 -33 -22 -55 -5 -55 42 0 19 -4 34 -9 34 -5 0 -12 8 -14 18 -2 9 -3 0 -1
-20 2 -20 0 -39 -6 -43 -6 -3 -11 34 -13 97 -3 103 -9 -201 -11 -579 0 -112
-4 -203 -8 -203 -5 0 -8 223 -8 496 l0 495 243 -4 c136 -3 266 -10 297 -17z
m1210 -67 l0 -88 -255 3 -255 3 0 -121 0 -120 225 0 225 0 -2 -82 -2 -83 -3
73 -4 72 -220 0 c-186 0 -221 2 -225 15 -4 8 -11 12 -18 8 -8 -5 -8 -3 -1 8 6
8 10 25 9 39 -1 14 -2 56 -3 94 -1 90 -13 79 -13 -14 0 -56 -3 -70 -14 -66 -8
3 -14 1 -14 -4 0 -6 6 -10 13 -10 8 0 8 -3 -2 -9 -11 -7 -9 -10 10 -13 23 -3
23 -4 -4 -10 -25 -5 -28 -3 -24 13 7 26 -9 34 -22 12 -9 -15 -10 -11 -11 19 0
24 6 42 18 50 14 10 27 48 17 48 -1 0 -15 -19 -30 -41 -17 -27 -25 -50 -22
-65 2 -14 0 -27 -4 -30 -5 -3 -9 2 -9 10 0 8 -8 20 -17 25 -17 10 -17 10 0 11
9 0 17 5 17 10 0 6 -7 10 -15 10 -11 0 -15 21 -18 108 -1 59 -4 -92 -5 -335
-1 -244 -5 -443 -9 -443 -5 0 -8 223 -8 495 l-1 495 348 0 348 0 0 -87z
m-2005 -194 c-4 -6 0 -9 11 -7 12 2 19 -3 19 -12 0 -9 -7 -14 -19 -12 -13 2
-16 -1 -10 -10 6 -10 5 -10 -9 0 -9 8 -15 19 -14 25 1 6 -3 11 -10 12 -28 1
-23 15 6 15 20 0 30 -4 26 -11z m-1627 -13 c-10 -7 -15 -16 -11 -19 12 -12 22
-7 28 14 4 11 9 18 12 16 8 -8 -17 -47 -30 -47 -7 0 -19 5 -27 10 -13 8 -12
11 5 24 11 9 25 15 30 15 6 0 2 -6 -7 -13z m811 -31 c13 -22 16 -32 8 -22 -15
18 -32 24 -22 7 4 -6 -1 -7 -11 -3 -11 4 -13 8 -6 11 8 2 10 13 6 30 -8 33 -4
29 25 -23z m780 8 c-1 -10 -5 -29 -9 -43 -7 -21 -8 -19 -9 18 -1 23 4 42 9 42
6 0 10 -8 9 -17z m-1539 -9 c0 -8 -4 -12 -10 -9 -5 3 -10 10 -10 16 0 5 5 9
10 9 6 0 10 -7 10 -16z m400 -9 c0 -9 -6 -12 -15 -9 -8 4 -15 10 -15 15 0 5 7
9 15 9 8 0 15 -7 15 -15z m1220 2 c0 -7 -9 -13 -21 -13 -19 0 -19 1 -3 13 10
7 19 13 21 13 2 0 3 -6 3 -13z m-1790 -8 c0 -5 -5 -7 -10 -4 -6 3 -14 -4 -19
-17 -10 -23 -10 -23 -10 -1 -1 19 10 30 32 32 4 1 7 -4 7 -10z m985 1 c-3 -5
-11 -10 -16 -10 -6 0 -7 5 -4 10 3 6 11 10 16 10 6 0 7 -4 4 -10z m1069 4 c23
-9 20 -23 -4 -17 -11 3 -20 9 -20 14 0 11 3 11 24 3z m-2121 -24 c-3 -12 -8
-19 -11 -16 -5 6 5 36 12 36 2 0 2 -9 -1 -20z m301 4 c3 -8 2 -12 -4 -9 -6 3
-10 10 -10 16 0 14 7 11 14 -7z m1499 -3 c-6 -3 -13 -13 -16 -21 -4 -11 -6 -9
-6 6 -1 24 8 36 21 27 7 -3 7 -8 1 -12z m1042 9 c3 -5 -1 -10 -10 -10 -9 0
-13 5 -10 10 3 6 8 10 10 10 2 0 7 -4 10 -10z m-2898 -22 c-3 -8 -6 -5 -6 6
-1 11 2 17 5 13 3 -3 4 -12 1 -19z m2940 -8 c13 0 13 3 3 15 -10 12 -10 15 4
15 23 0 20 -37 -4 -43 -10 -3 -21 0 -23 7 -3 8 -9 7 -20 -3 -22 -18 -22 -6 1
17 12 13 18 14 20 5 2 -7 10 -13 19 -13z m-2907 -15 c0 -5 -5 -3 -10 5 -5 8
-10 20 -10 25 0 6 5 3 10 -5 5 -8 10 -19 10 -25z m1881 8 c-12 -20 -14 -14 -5
12 4 9 9 14 11 11 3 -2 0 -13 -6 -23z m-1799 -29 c-6 -12 -9 -7 -9 16 0 23 3
28 9 16 5 -9 5 -23 0 -32z m900 22 c3 -14 2 -30 -2 -36 -4 -6 -7 5 -8 25 -2
40 4 46 10 11z m111 -7 c-9 -9 -12 -7 -10 9 1 14 5 18 11 12 7 -7 6 -14 -1
-21z m750 7 c4 -10 1 -13 -9 -9 -7 3 -14 9 -14 14 0 14 17 10 23 -5z m960 -16
c3 -11 1 -18 -4 -14 -5 3 -9 12 -9 20 0 20 7 17 13 -6z m-1778 -19 c-6 -5 -25
10 -25 20 0 5 6 4 14 -3 8 -7 12 -15 11 -17z m1858 4 c-7 -21 -12 -19 -10 4 0
11 5 18 9 15 4 -3 5 -11 1 -19z m-27 -4 c0 -12 -5 -17 -14 -13 -11 4 -13 -1
-7 -19 5 -18 4 -21 -4 -9 -14 20 -14 26 5 44 19 20 20 20 20 -3z m74 15 c0 -2
-7 -6 -15 -10 -8 -3 -15 -1 -15 4 0 6 7 10 15 10 8 0 15 -2 15 -4z m310 -6 c0
-5 -5 -10 -11 -10 -5 0 -7 5 -4 10 3 6 8 10 11 10 2 0 4 -4 4 -10z m-37 -42
c-10 -21 -10 -21 -9 9 1 19 5 28 10 23 6 -6 5 -18 -1 -32z m87 -17 c13 -11 12
-12 -6 -3 -12 7 -24 19 -28 29 -5 16 -4 16 7 3 7 -8 19 -21 27 -29z m160 29
c0 -5 -13 -7 -30 -3 -22 4 -30 2 -30 -8 0 -11 -2 -11 -10 1 -9 13 -10 13 -10
0 0 -10 -3 -11 -8 -4 -4 7 -16 14 -27 17 -11 2 10 5 48 6 37 0 67 -3 67 -9z
m90 3 c-19 -2 -41 -11 -47 -20 -14 -18 -17 -14 -7 11 4 11 18 16 48 14 40 -1
40 -1 6 -5z m208 0 c-10 -2 -19 -12 -19 -21 -1 -14 -2 -14 -6 -1 -5 19 -81 23
-103 5 -30 -26 -37 -26 -32 -1 4 24 6 25 91 24 47 -1 78 -3 69 -6z m-3416 -28
c2 3 5 -2 5 -10 0 -19 0 -19 -23 7 -12 14 -13 18 -3 10 9 -6 18 -10 21 -7z
m2561 8 c-7 -2 -19 -2 -25 0 -7 3 -2 5 12 5 14 0 19 -2 13 -5z m-2521 -17 c7
4 8 2 4 -5 -9 -13 -26 -5 -25 12 0 9 2 8 6 -1 2 -6 10 -9 15 -6z m3308 4 c0
-5 -5 -10 -11 -10 -5 0 -7 5 -4 10 3 6 8 10 11 10 2 0 4 -4 4 -10z m76 -25 c0
-21 -3 -30 -8 -22 -10 16 -10 57 0 57 4 0 8 -16 8 -35z m-2726 21 c0 -3 -4 -8
-10 -11 -5 -3 -10 -1 -10 4 0 6 5 11 10 11 6 0 10 -2 10 -4z m1897 -58 c-3 -8
-6 -5 -6 6 -1 11 2 17 5 13 3 -3 4 -12 1 -19z m-2507 6 c0 -8 -19 -13 -24 -6
-3 5 1 9 9 9 8 0 15 -2 15 -3z m2869 -27 c0 -9 -2 -8 -6 1 -2 6 -10 9 -15 6
-7 -4 -8 -2 -4 5 9 13 26 5 25 -12z m41 -129 l0 -128 255 0 255 0 -2 -87 -2
-88 -3 78 -4 77 -254 0 -255 0 -1 128 c0 70 -2 138 -5 152 -3 19 -2 21 6 10 5
-8 10 -72 10 -142z m428 127 c3 -3 -91 -4 -209 -3 -118 1 -187 4 -154 7 70 7
356 4 363 -4z m-1171 -281 c-3 -3 -12 -4 -19 -1 -8 3 -5 6 6 6 11 1 17 -2 13
-5z m-857 -79 c0 -2 -10 -9 -22 -15 -22 -11 -22 -10 -4 4 21 17 26 19 26 11z
m927 -41 c-3 -3 -12 -4 -19 -1 -8 3 -5 6 6 6 11 1 17 -2 13 -5z m-1020 -10
c-3 -3 -12 -4 -19 -1 -8 3 -5 6 6 6 11 1 17 -2 13 -5z m-1564 -11 c-13 -2 -33
-2 -45 0 -13 2 -3 4 22 4 25 0 35 -2 23 -4z m650 0 c-7 -2 -21 -2 -30 0 -10 3
-4 5 12 5 17 0 24 -2 18 -5z m1535 0 c-21 -2 -55 -2 -75 0 -21 2 -4 4 37 4 41
0 58 -2 38 -4z m230 0 c-32 -2 -86 -2 -120 0 -35 2 -9 3 57 3 66 0 94 -1 63
-3z m995 0 c-56 -2 -151 -2 -210 0 -59 1 -13 3 102 3 116 0 164 -2 108 -3z
m185 0 c-16 -2 -40 -2 -55 0 -16 2 -3 4 27 4 30 0 43 -2 28 -4z m135 0 c-13
-2 -35 -2 -50 0 -16 2 -5 4 22 4 28 0 40 -2 28 -4z m-6950 -674 c32 -17 50
-49 27 -49 -5 0 -10 6 -10 14 0 22 -56 40 -93 29 -27 -7 -32 -14 -32 -38 0
-27 7 -33 58 -57 41 -20 57 -33 57 -48 0 -36 -65 -54 -94 -25 -8 8 -21 15 -28
15 -7 -1 -3 -9 11 -20 31 -26 85 -26 112 1 31 31 20 51 -46 84 -64 32 -79 57
-45 75 23 12 76 5 86 -11 11 -18 -5 -22 -21 -5 -21 20 -54 21 -61 1 -9 -22 11
-42 48 -49 61 -12 88 -64 52 -100 -46 -47 -154 -24 -154 33 0 12 41 5 49 -8
10 -15 55 -22 71 -11 23 14 1 41 -46 57 -36 12 -74 44 -74 63 0 4 9 19 21 34
23 29 73 35 112 15z m247 -8 c0 -15 -8 -19 -50 -20 -27 0 -50 4 -50 9 0 6 -9
10 -21 10 -11 0 -17 -5 -14 -10 4 -6 11 -8 16 -5 5 4 9 -8 9 -24 0 -31 0 -31
55 -31 42 0 55 -3 55 -15 0 -12 -13 -15 -55 -15 -54 0 -55 0 -55 -30 0 -30 1
-30 55 -30 46 0 55 -3 55 -17 0 -16 -10 -18 -75 -18 l-75 0 0 108 0 107 75 0
c67 0 75 -2 75 -19z m217 4 c21 -15 38 -55 22 -55 -5 0 -9 6 -9 14 0 8 -10 22
-22 30 -35 25 -42 19 -11 -8 15 -13 25 -28 20 -32 -4 -4 -14 2 -23 14 -34 48
-104 5 -104 -64 0 -60 71 -92 107 -47 6 8 22 13 34 11 l22 -3 -25 -30 c-22
-25 -33 -30 -73 -30 -40 0 -51 5 -76 33 -42 47 -37 115 12 161 27 25 94 28
126 6z m123 -60 c0 -62 3 -78 21 -96 14 -14 27 -18 42 -13 42 13 47 24 47 105
0 72 2 79 20 79 18 0 20 -7 20 -84 0 -109 -15 -131 -88 -131 -79 0 -92 18 -92
127 0 72 3 88 15 88 12 0 15 -15 15 -75z m355 63 c14 -6 28 -22 32 -35 7 -30
-11 -73 -32 -73 -21 0 -19 -9 10 -52 26 -38 33 -60 14 -41 -6 6 -17 9 -23 7
-7 -3 -22 14 -35 36 -32 58 -59 55 -64 -7 l-3 -48 -2 53 -2 52 48 2 47 2 -47
3 -48 4 2 42 1 42 4 -38 c4 -37 5 -38 40 -35 63 5 72 52 11 60 -15 2 -30 7
-34 11 -4 4 -13 7 -21 7 -10 0 -13 -22 -13 -95 0 -52 -3 -95 -7 -95 -6 0 -9
187 -4 208 2 8 104 0 126 -10z m135 -93 c0 -93 -2 -105 -17 -105 -16 0 -18 11
-16 102 1 57 2 104 3 106 0 1 7 2 15 2 12 0 15 -18 15 -105z m180 15 c59 -88
80 -128 39 -76 -12 15 -23 25 -26 22 -8 -8 29 -56 43 -56 11 0 14 20 12 93
l-2 92 -6 -70 -6 -70 -3 55 c-1 30 -4 65 -7 78 -3 17 1 22 16 22 19 0 20 -7
20 -109 0 -107 0 -108 -23 -104 -14 3 -39 31 -72 81 l-50 76 -5 -80 c-4 -67
-8 -80 -20 -75 -12 5 -15 25 -15 94 0 48 3 87 7 87 5 0 9 -39 10 -87 l2 -88 5
90 6 90 19 -28 c10 -15 21 -26 23 -23 11 11 -31 56 -53 56 -13 0 -24 5 -24 10
0 6 11 10 25 10 20 0 36 -17 85 -90z m314 69 c31 -24 33 -35 7 -42 -12 -3 -27
3 -37 14 -36 40 -104 6 -104 -52 0 -42 16 -68 53 -84 18 -8 26 -14 19 -15 -7
0 -26 7 -42 15 -17 9 -30 11 -30 6 0 -28 110 -35 126 -9 4 6 -2 8 -17 3 l-24
-7 23 17 c32 23 28 45 -8 45 -20 0 -30 5 -30 15 0 11 12 15 50 15 45 0 50 -2
50 -22 0 -88 -117 -130 -179 -64 -45 48 -32 148 22 174 37 18 92 14 121 -9z
m356 1 c0 -16 -7 -20 -35 -20 l-35 0 0 -84 c0 -65 -3 -85 -15 -90 -13 -5 -15
9 -13 92 l2 97 6 -90 6 -90 2 87 2 87 33 4 c19 2 9 4 -26 5 -37 1 -56 -2 -52
-8 4 -6 -5 -10 -19 -10 -19 0 -26 5 -26 20 0 18 7 20 85 20 78 0 85 -2 85 -20z
m89 8 c-1 -7 -1 -28 0 -45 1 -33 1 -33 51 -33 l50 0 0 45 c0 38 3 45 20 45 19
0 20 -7 20 -105 0 -98 -1 -105 -20 -105 -17 0 -20 7 -20 44 l0 45 -47 4 c-41
3 -40 4 10 3 32 -1 57 3 57 9 0 6 -28 9 -70 7 l-70 -4 -2 44 c-1 24 -5 -4 -8
-62 l-6 -105 -2 113 c-2 107 -1 112 18 112 12 0 20 -6 19 -12z m351 -8 c0 -21
-19 -28 -21 -7 0 10 -2 10 -6 0 -6 -15 -69 -17 -78 -3 -3 6 -15 10 -26 10 -10
0 -19 5 -19 10 0 6 32 10 75 10 68 0 75 -2 75 -20z m299 9 c62 -22 81 -113 36
-167 -23 -28 -32 -31 -95 -34 l-70 -3 0 108 0 107 49 0 c26 0 62 -5 80 -11z
m267 -11 c1 -10 -4 -18 -12 -18 -9 0 -12 5 -8 12 5 7 3 8 -7 2 -21 -13 -39
-14 -39 -1 0 7 -5 6 -11 -3 -8 -11 -12 -12 -16 -2 -2 6 -13 12 -24 12 -17 0
-19 -8 -19 -90 l0 -90 63 2 62 2 -57 3 c-32 2 -58 7 -58 11 0 4 29 5 66 4 52
-3 64 -7 62 -19 -2 -12 -20 -15 -76 -16 l-72 -2 0 108 0 108 72 -3 c59 -2 72
-6 74 -20z m218 1 c29 -22 35 -49 11 -49 -8 0 -24 9 -35 20 -27 27 -56 25 -85
-5 -49 -48 -20 -128 45 -128 19 0 38 7 45 16 11 15 45 24 45 13 0 -32 -51 -67
-97 -65 -27 1 -27 1 5 9 47 11 47 15 0 15 -50 0 -78 30 -78 85 0 47 25 79 70
90 33 7 33 8 7 9 -42 1 -87 -47 -87 -94 0 -39 22 -90 42 -98 9 -4 9 -6 1 -6
-25 -2 -53 51 -53 101 0 41 5 54 29 79 37 36 94 40 135 8z m236 0 c0 -18 -5
-20 -52 -18 -51 3 -53 2 -56 -24 -3 -26 -2 -27 52 -27 43 0 56 -3 56 -15 0
-12 -13 -15 -55 -15 -54 0 -55 0 -55 -30 0 -30 1 -30 55 -30 46 0 55 -3 55
-17 0 -16 -9 -18 -70 -15 l-70 4 1 91 c0 53 4 84 8 73 7 -19 8 -19 13 2 4 15
2 22 -8 22 -8 0 -14 5 -14 10 0 6 30 10 70 10 64 0 70 -2 70 -21z m157 -57
c29 -42 55 -86 59 -97 8 -25 -29 23 -76 99 -22 35 -42 56 -54 56 -16 0 -16 -2
5 -19 14 -10 45 -51 69 -90 25 -39 50 -71 57 -71 10 0 13 24 11 93 l-1 92 -7
-65 -7 -65 -1 73 c-2 64 0 73 15 70 14 -3 17 -19 19 -105 2 -103 2 -103 -22
-103 -18 0 -34 16 -70 70 -26 39 -50 70 -53 70 -3 0 -5 -31 -3 -69 3 -62 2
-69 -17 -74 -20 -5 -21 -2 -21 104 0 106 1 109 23 109 16 -1 35 -20 74 -78z
m313 58 c0 -16 -7 -20 -30 -20 -16 0 -30 5 -30 10 0 6 -15 9 -32 9 -18 -1 -25
-3 -15 -6 14 -4 17 -18 19 -91 l2 -87 6 90 6 90 2 -97 c2 -87 0 -96 -15 -92
-16 4 -18 16 -15 89 l3 85 -35 0 c-29 0 -36 4 -36 20 0 18 7 20 85 20 78 0 85
-2 85 -20z m202 -9 c21 -27 17 -57 -14 -83 -20 -18 -20 -18 7 -65 15 -27 22
-43 15 -36 -7 6 -18 9 -24 7 -7 -3 -22 14 -35 36 -31 55 -61 55 -61 0 0 -33
-3 -40 -20 -40 -19 0 -20 7 -20 89 0 84 1 90 20 88 16 -1 20 -8 20 -35 0 -32
1 -33 38 -30 32 3 37 7 40 31 3 25 1 27 -32 27 -20 0 -36 5 -36 10 0 6 -11 10
-25 10 -14 0 -25 5 -25 11 0 8 22 10 66 7 55 -3 70 -8 86 -27z m221 -63 c52
-136 51 -134 39 -123 -5 6 -26 51 -45 100 -27 71 -39 91 -56 93 -11 2 -21 -2
-21 -8 0 -6 5 -8 10 -5 13 8 13 5 -5 -45 -20 -58 -20 -60 20 -60 19 0 35 2 35
5 0 2 -7 23 -16 45 -9 23 -14 43 -11 46 6 6 42 -95 41 -113 -1 -7 2 -13 6 -13
4 0 10 -9 13 -20 3 -11 1 -20 -3 -20 -5 0 -12 9 -15 20 -5 16 -15 20 -55 20
-41 0 -48 -3 -53 -22 -4 -12 -9 -19 -12 -16 -4 4 0 21 8 40 21 50 39 109 35
114 -3 2 -17 -32 -32 -76 -16 -44 -33 -83 -39 -87 -7 -4 -8 0 -3 13 4 10 19
51 33 89 14 39 29 80 34 93 6 14 17 22 32 22 21 0 29 -12 60 -92z m131 2 l-2
-90 54 0 c45 0 54 -3 54 -17 0 -15 -10 -18 -70 -18 l-70 0 0 108 c0 95 2 107
18 107 15 0 17 -10 16 -90z m205 -14 c2 -96 0 -104 -19 -109 -19 -5 -20 -1
-20 104 0 100 2 109 19 109 17 0 19 -9 20 -104z m231 87 c0 -10 -25 -48 -55
-86 -30 -37 -55 -69 -55 -72 0 -3 25 -5 55 -5 46 0 55 -3 55 -17 0 -16 -9 -18
-80 -15 -98 4 -99 10 -30 98 28 35 50 69 50 75 0 6 9 9 20 6 11 -3 23 -1 26 4
3 5 -18 9 -48 8 -42 -1 -48 -3 -28 -9 20 -7 16 -8 -22 -9 -42 -1 -48 2 -48 19
0 18 7 20 80 20 70 0 80 -2 80 -17z m220 -3 c0 -17 -7 -20 -44 -20 -25 0 -48
5 -51 10 -3 6 -14 10 -23 9 -11 0 -12 -3 -4 -6 6 -2 12 -18 12 -34 0 -29 1
-29 55 -29 42 0 55 -3 55 -15 0 -12 -13 -15 -55 -15 -54 0 -55 0 -55 -30 0
-30 1 -30 55 -30 46 0 55 -3 55 -17 0 -16 -9 -18 -70 -15 l-70 4 0 104 0 104
70 0 c63 0 70 -2 70 -20z m235 -10 c28 -27 37 -67 24 -113 -13 -50 -33 -61
-111 -67 l-68 -5 0 109 0 109 66 -6 c48 -3 71 -10 89 -27z m334 8 c0 -13 -3
-17 -6 -9 -4 9 -7 10 -13 2 -5 -9 -19 -9 -55 -1 -26 6 -50 8 -53 5 -3 -3 2 -5
11 -5 12 0 17 -9 17 -32 0 -33 1 -33 47 -33 37 0 48 -4 51 -17 3 -15 -4 -18
-47 -18 l-51 0 0 -39 c0 -30 -4 -40 -20 -44 -19 -5 -20 0 -20 104 l0 109 70 0
c66 0 70 -1 69 -22z m101 -58 c0 -73 2 -81 24 -96 22 -13 29 -14 53 -2 27 13
28 16 31 96 3 74 5 82 22 82 18 0 20 -7 20 -75 0 -41 -5 -85 -11 -98 -22 -48
-97 -62 -142 -27 -24 19 -26 28 -29 110 -3 80 -1 90 15 90 15 0 17 -10 17 -80z
m360 60 c0 -15 -7 -20 -25 -20 -14 0 -25 5 -25 10 0 6 -19 10 -42 10 -32 0
-39 -3 -28 -10 13 -8 12 -10 -2 -10 -10 0 -18 6 -19 13 0 10 -2 10 -6 0 -11
-30 -24 -8 -14 25 1 1 37 2 81 2 73 0 80 -2 80 -20z m91 -60 c4 -87 13 -103
59 -103 47 0 55 15 54 104 -1 71 1 79 17 79 17 0 19 -9 19 -84 0 -109 -15
-131 -88 -131 -79 0 -92 18 -92 127 0 69 3 88 14 88 10 0 15 -20 17 -80z m349
70 c32 -17 43 -48 30 -80 -7 -16 -19 -31 -27 -34 -12 -5 -11 -13 11 -50 l26
-44 -27 7 c-15 4 -29 14 -31 22 -5 12 -2 12 13 -1 19 -16 19 -13 -4 33 -17 32
-36 37 -21 5 l11 -23 -17 23 c-9 12 -25 22 -35 22 -15 0 -19 -8 -19 -39 0 -30
-4 -40 -20 -44 -19 -5 -20 0 -20 104 l0 109 56 0 c30 0 64 -5 74 -10z m240
-10 c0 -23 -10 -25 -29 -7 -11 10 -12 9 -6 -1 6 -11 -1 -13 -31 -10 -36 3 -39
1 -42 -24 -3 -28 -2 -28 52 -28 43 0 56 -3 56 -15 0 -12 -13 -15 -55 -15 -54
0 -55 0 -55 -30 0 -30 1 -30 55 -30 42 0 55 -3 55 -15 0 -12 -14 -15 -70 -15
l-70 0 0 105 0 105 70 0 c63 0 70 -2 70 -20z m-4520 -40 c0 -30 1 -30 53 -30
42 0 54 -3 54 -15 0 -13 -11 -15 -56 -13 l-56 3 -6 40 c-5 32 -6 25 -8 -32 0
-40 -2 -76 -3 -80 -2 -5 26 -8 62 -9 64 -1 64 -1 8 3 l-58 4 1 32 c2 30 2 30
6 5 4 -27 7 -28 59 -28 41 0 54 -4 54 -15 0 -12 -15 -15 -75 -15 l-75 0 0 90
c0 83 1 90 20 90 16 0 20 -7 20 -30z m566 3 c-1 -27 1 -28 52 -31 37 -2 52 -7
52 -18 0 -10 -14 -14 -54 -14 -49 0 -55 -2 -58 -22 -2 -13 -4 7 -4 45 -1 37 2
67 5 67 4 0 7 -12 7 -27z m3192 -66 c3 115 22 119 22 4 0 -84 -1 -91 -20 -91
-19 0 -20 6 -18 93 l2 92 6 -90 6 -90 2 82z m-4006 -49 c2 -21 0 -38 -4 -38
-4 0 -7 24 -7 53 1 54 5 49 11 -15z"/>
<path d="M1977 6766 c-81 -29 -139 -101 -154 -189 -13 -83 44 -185 129 -228
44 -23 133 -25 181 -5 78 32 136 124 137 214 0 147 -155 257 -293 208z"/>
<path d="M1975 4488 c-48 -17 -93 -55 -122 -105 -21 -37 -27 -59 -27 -107 1
-100 44 -165 138 -207 107 -47 244 11 290 123 20 46 21 128 3 171 -45 107
-172 163 -282 125z"/>
<path d="M3750 6709 c-134 -56 -174 -227 -77 -331 32 -34 99 -68 134 -68 117
0 212 96 213 215 0 102 -82 186 -187 192 -32 1 -69 -2 -83 -8z"/>
<path d="M3714 4461 c-52 -24 -90 -73 -103 -134 -29 -127 63 -248 187 -248 60
-1 99 14 140 54 50 47 65 84 66 152 0 48 -6 68 -27 102 -54 86 -167 117 -263
74z"/>
<path d="M8280 6156 c0 -2 8 -10 18 -17 15 -13 16 -12 3 4 -13 16 -21 21 -21
13z"/>
<path d="M8780 5945 c13 -14 26 -25 28 -25 3 0 -5 11 -18 25 -13 14 -26 25
-28 25 -3 0 5 -11 18 -25z"/>
<path d="M8831 5844 c0 -11 3 -14 6 -6 3 7 2 16 -1 19 -3 4 -6 -2 -5 -13z"/>
<path d="M8240 5747 c-1 -25 51 -92 85 -109 11 -5 5 2 -13 17 -18 15 -41 43
-52 63 -10 21 -19 33 -20 29z"/>
<path d="M8654 5679 c-35 -39 -77 -53 -174 -60 l-95 -7 101 2 c67 1 107 6 117
15 9 7 22 9 28 5 7 -4 9 -3 5 4 -3 6 -1 14 6 19 15 9 43 43 36 43 -3 0 -13 -9
-24 -21z"/>
<path d="M8795 5629 c-4 -6 -5 -12 -2 -15 2 -3 7 2 10 11 7 17 1 20 -8 4z"/>
<path d="M8350 5626 c0 -2 7 -6 15 -10 8 -3 15 -1 15 4 0 6 -7 10 -15 10 -8 0
-15 -2 -15 -4z"/>
<path d="M8348 5503 c7 -3 16 -2 19 1 4 3 -2 6 -13 5 -11 0 -14 -3 -6 -6z"/>
<path d="M8413 5493 c9 -2 23 -2 30 0 6 3 -1 5 -18 5 -16 0 -22 -2 -12 -5z"/>
<path d="M5071 5914 c0 -11 3 -14 6 -6 3 7 2 16 -1 19 -3 4 -6 -2 -5 -13z"/>
<path d="M5661 5914 c0 -11 3 -14 6 -6 3 7 2 16 -1 19 -3 4 -6 -2 -5 -13z"/>
<path d="M5331 5884 c0 -11 3 -14 6 -6 3 7 2 16 -1 19 -3 4 -6 -2 -5 -13z"/>
<path d="M5081 5874 c0 -11 3 -14 6 -6 3 7 2 16 -1 19 -3 4 -6 -2 -5 -13z"/>
<path d="M5091 5834 c0 -11 3 -14 6 -6 3 7 2 16 -1 19 -3 4 -6 -2 -5 -13z"/>
<path d="M5101 5794 c0 -11 3 -14 6 -6 3 7 2 16 -1 19 -3 4 -6 -2 -5 -13z"/>
<path d="M5301 5774 c0 -11 3 -14 6 -6 3 7 2 16 -1 19 -3 4 -6 -2 -5 -13z"/>
<path d="M5111 5754 c0 -11 3 -14 6 -6 3 7 2 16 -1 19 -3 4 -6 -2 -5 -13z"/>
<path d="M5581 5720 c0 -8 4 -24 9 -35 5 -13 9 -14 9 -5 0 8 -4 24 -9 35 -5
13 -9 14 -9 5z"/>
<path d="M5601 5650 c0 -8 4 -24 9 -35 5 -13 9 -14 9 -5 0 8 -4 24 -9 35 -5
13 -9 14 -9 5z"/>
<path d="M5001 5634 c0 -11 3 -14 6 -6 3 7 2 16 -1 19 -3 4 -6 -2 -5 -13z"/>
<path d="M5261 5634 c0 -11 3 -14 6 -6 3 7 2 16 -1 19 -3 4 -6 -2 -5 -13z"/>
<path d="M5011 5600 c0 -8 4 -24 9 -35 5 -13 9 -14 9 -5 0 8 -4 24 -9 35 -5
13 -9 14 -9 5z"/>
<path d="M5846 5579 c-3 -18 -4 -34 -2 -36 2 -3 7 10 11 27 4 17 5 34 2 36 -2
3 -7 -10 -11 -27z"/>
<path d="M5621 5574 c0 -11 3 -14 6 -6 3 7 2 16 -1 19 -3 4 -6 -2 -5 -13z"/>
<path d="M5241 5564 c0 -11 3 -14 6 -6 3 7 2 16 -1 19 -3 4 -6 -2 -5 -13z"/>
<path d="M5031 5524 c0 -11 3 -14 6 -6 3 7 2 16 -1 19 -3 4 -6 -2 -5 -13z"/>
<path d="M5222 5525 c-11 -12 -10 -15 3 -15 8 0 15 7 15 15 0 18 -2 18 -18 0z"/>
<path d="M5067 5519 c7 -7 15 -10 18 -7 3 3 -2 9 -12 12 -14 6 -15 5 -6 -5z"/>
<path d="M5140 5516 c7 -7 13 -7 20 0 6 6 3 10 -10 10 -13 0 -16 -4 -10 -10z"/>
<path d="M5650 5520 c-6 -4 5 -7 25 -8 19 -1 35 0 35 2 0 8 -49 13 -60 6z"/>
<path d="M6547 6310 c-19 -51 -127 -419 -127 -433 0 -15 14 -17 135 -17 74 0
135 4 135 9 0 8 -16 60 -87 286 -14 44 -31 100 -38 125 -7 27 -15 39 -18 30z"/>
<path d="M6483 5843 c43 -2 110 -2 150 0 40 1 5 3 -78 3 -82 0 -115 -2 -72 -3z"/>
<path d="M6191 5759 c-12 -35 -17 -59 -12 -54 11 12 42 107 37 112 -2 2 -13
-24 -25 -58z"/>
<path d="M6902 5768 c3 -7 25 -68 48 -135 24 -67 46 -121 48 -119 5 5 -89 266
-95 266 -3 0 -3 -6 -1 -12z"/>
<path d="M6166 5682 c-11 -18 -58 -163 -54 -167 2 -3 18 36 35 85 28 82 33
104 19 82z"/>
<path d="M6306 5625 c-3 -9 -6 -22 -5 -28 0 -7 5 -1 10 12 5 13 8 26 5 28 -2
2 -6 -3 -10 -12z"/>
<path d="M6805 5589 c-4 -6 -5 -12 -2 -15 2 -3 7 2 10 11 7 17 1 20 -8 4z"/>
<path d="M6276 5535 c-9 -26 -7 -32 5 -12 6 10 9 21 6 23 -2 3 -7 -2 -11 -11z"/>
<path d="M7669 5885 c5 -11 17 -29 26 -40 l16 -20 -10 20 c-5 11 -17 29 -26
40 l-16 20 10 -20z"/>
<path d="M7716 5807 c3 -10 9 -15 12 -12 3 3 0 11 -7 18 -10 9 -11 8 -5 -6z"/>
<path d="M7302 5755 c0 -16 2 -22 5 -12 2 9 2 23 0 30 -3 6 -5 -1 -5 -18z"/>
<path d="M7903 5675 c0 -44 2 -61 4 -37 2 23 2 59 0 80 -2 20 -4 1 -4 -43z"/>
<path d="M7304 5595 c0 -49 1 -71 3 -48 2 23 2 64 0 90 -2 26 -3 8 -3 -42z"/>
<path d="M7714 5553 c19 -39 32 -48 32 -23 0 10 -4 18 -7 17 -4 -1 -15 7 -24
18 -15 19 -15 18 -1 -12z"/>
<path d="M7902 5535 c0 -16 2 -22 5 -12 2 9 2 23 0 30 -3 6 -5 -1 -5 -18z"/>
<path d="M6640 5159 c26 -18 70 -40 70 -35 0 6 -66 46 -76 46 -5 0 -2 -5 6
-11z"/>
<path d="M6490 5141 c0 -5 7 -12 16 -15 14 -5 15 -4 4 9 -14 17 -20 19 -20 6z"/>
<path d="M6319 5118 c-8 -26 -5 -36 8 -31 11 4 12 8 3 13 -9 6 -9 9 1 13 10 4
10 6 2 6 -7 1 -13 0 -14 -1z"/>
<path d="M6355 5100 c3 -5 10 -10 16 -10 5 0 9 5 9 10 0 6 -7 10 -16 10 -8 0
-12 -4 -9 -10z"/>
<path d="M6260 5080 l-25 -21 28 12 c15 7 27 16 27 21 0 11 -1 10 -30 -12z"/>
<path d="M6478 5083 c7 -3 16 -2 19 1 4 3 -2 6 -13 5 -11 0 -14 -3 -6 -6z"/>
<path d="M6321 5070 c-130 -27 -214 -138 -228 -300 -16 -191 67 -346 206 -387
73 -21 191 -14 247 15 138 71 199 281 139 481 -20 65 -91 145 -151 171 -51 22
-155 32 -213 20z"/>
<path d="M6611 5064 c0 -11 3 -14 6 -6 3 7 2 16 -1 19 -3 4 -6 -2 -5 -13z"/>
<path d="M6056 5062 c-3 -4 4 -9 15 -9 23 -2 25 3 4 10 -8 4 -16 3 -19 -1z"/>
<path d="M6204 5051 c1 -10 -7 -16 -19 -16 -11 0 -19 -3 -17 -8 1 -4 2 -9 2
-12 0 -11 40 16 49 34 7 13 6 18 -3 18 -7 0 -13 -7 -12 -16z"/>
<path d="M6673 5035 c0 -8 4 -15 9 -15 4 0 8 4 8 9 0 6 -4 12 -8 15 -5 3 -9
-1 -9 -9z"/>
<path d="M6135 5030 c3 -5 8 -10 11 -10 2 0 4 5 4 10 0 6 -5 10 -11 10 -5 0
-7 -4 -4 -10z"/>
<path d="M6625 5030 c4 -6 11 -8 16 -5 14 9 11 15 -7 15 -8 0 -12 -5 -9 -10z"/>
<path d="M6020 5010 c0 -5 5 -10 11 -10 5 0 7 5 4 10 -3 6 -8 10 -11 10 -2 0
-4 -4 -4 -10z"/>
<path d="M6645 5010 c-4 -6 -11 -7 -17 -4 -7 4 -8 2 -4 -4 7 -12 36 -5 36 9 0
12 -7 11 -15 -1z"/>
<path d="M6107 5003 c-11 -11 -8 -25 4 -17 7 4 9 0 5 -14 -11 -32 8 -33 26 -2
13 23 14 29 3 34 -10 3 -12 -1 -9 -12 5 -16 4 -16 -9 0 -8 10 -17 15 -20 11z"/>
<path d="M6675 4990 c3 -5 10 -10 16 -10 5 0 9 5 9 10 0 6 -7 10 -16 10 -8 0
-12 -4 -9 -10z"/>
<path d="M6079 4978 c10 -13 10 -21 1 -35 -10 -16 -11 -16 -6 -1 3 10 1 20 -4
23 -6 4 -10 2 -10 -4 0 -5 -3 -16 -6 -25 -9 -25 23 -20 37 5 9 17 8 24 -7 38
-17 15 -17 15 -5 -1z"/>
<path d="M6700 4871 c0 -25 6 -27 13 -6 4 8 2 17 -3 20 -6 4 -10 -3 -10 -14z"/>
<path d="M5011 5164 c0 -11 3 -14 6 -6 3 7 2 16 -1 19 -3 4 -6 -2 -5 -13z"/>
<path d="M5110 5031 c0 -5 5 -13 10 -16 6 -3 10 -2 10 4 0 5 -4 13 -10 16 -5
3 -10 2 -10 -4z"/>
<path d="M5051 5014 c0 -11 3 -14 6 -6 3 7 2 16 -1 19 -3 4 -6 -2 -5 -13z"/>
<path d="M5138 5007 c-3 -19 -2 -25 4 -19 6 6 8 18 6 28 -3 14 -5 12 -10 -9z"/>
<path d="M5170 5010 c0 -5 5 -10 11 -10 6 0 9 -8 7 -18 -4 -12 1 -18 13 -18
16 0 16 2 -3 28 -21 30 -28 34 -28 18z"/>
<path d="M4940 4991 c0 -6 5 -13 10 -16 6 -4 7 -11 4 -17 -4 -6 -2 -8 4 -5 12
8 4 47 -9 47 -5 0 -9 -4 -9 -9z"/>
<path d="M5035 4983 c5 -18 3 -22 -9 -17 -11 4 -13 0 -9 -15 6 -25 8 -25 33
-4 20 17 28 39 11 28 -6 -3 -15 3 -21 12 -10 16 -10 15 -5 -4z"/>
<path d="M5260 4921 c0 -5 5 -13 10 -16 6 -3 10 -2 10 4 0 5 -4 13 -10 16 -5
3 -10 2 -10 -4z"/>
<path d="M5598 5193 c23 -2 61 -2 85 0 23 2 4 4 -43 4 -47 0 -66 -2 -42 -4z"/>
<path d="M5572 5130 c0 -14 2 -19 5 -12 2 6 2 18 0 25 -3 6 -5 1 -5 -13z"/>
<path d="M5648 4996 c-22 -16 -24 -38 -3 -30 8 4 15 2 15 -3 0 -5 7 -18 15
-29 14 -18 14 -18 15 9 0 16 -4 26 -9 22 -5 -3 -11 6 -13 19 -3 22 -5 23 -20
12z"/>
<path d="M7173 5193 c59 -2 155 -2 215 0 59 1 10 3 -108 3 -118 0 -167 -2
-107 -3z"/>
<path d="M7540 5179 c25 -4 56 -7 70 -7 23 0 22 1 -5 8 -16 4 -48 8 -70 8
l-40 -1 45 -8z"/>
<path d="M7680 5150 c24 -12 51 -26 59 -33 12 -9 13 -9 7 1 -9 14 -51 37 -86
46 -14 3 -5 -3 20 -14z"/>
<path d="M7793 5071 c41 -49 50 -75 15 -45 -12 10 -18 13 -14 6 10 -17 -36
-55 -46 -39 -4 7 -8 8 -8 2 0 -5 4 -16 9 -24 7 -11 11 -9 21 8 8 15 15 19 23
13 18 -14 45 -11 52 6 6 16 -20 55 -61 92 -20 18 -18 13 9 -19z m27 -71 c0 -5
-4 -10 -10 -10 -5 0 -10 5 -10 10 0 6 5 10 10 10 6 0 10 -4 10 -10z"/>
<path d="M7437 5083 c-14 -14 -6 -23 21 -22 23 2 24 2 4 6 -12 2 -20 9 -17 14
7 10 1 12 -8 2z"/>
<path d="M7280 5069 c-18 -5 -8 -7 33 -8 31 -1 57 3 57 7 0 10 -56 10 -90 1z"/>
<path d="M7390 5070 c0 -5 5 -10 10 -10 6 0 10 5 10 10 0 6 -4 10 -10 10 -5 0
-10 -4 -10 -10z"/>
<path d="M7723 5051 c0 -11 5 -18 9 -15 4 3 5 11 1 19 -7 21 -12 19 -10 -4z"/>
<path d="M7528 5053 c6 -2 18 -2 25 0 6 3 1 5 -13 5 -14 0 -19 -2 -12 -5z"/>
<path d="M7763 5045 c0 -8 4 -12 9 -9 5 3 6 10 3 15 -9 13 -12 11 -12 -6z"/>
<path d="M7248 5044 c-3 -5 -6 -152 -7 -327 l-3 -319 159 4 c173 4 208 13 264
75 54 58 73 110 77 219 7 171 -36 267 -143 319 -51 26 -69 28 -199 33 -79 2
-145 1 -148 -4z"/>
<path d="M7590 5036 c0 -9 30 -14 35 -6 4 6 -3 10 -14 10 -12 0 -21 -2 -21 -4z"/>
<path d="M7641 5026 c-8 -10 -9 -16 -1 -21 5 -3 13 1 16 10 9 22 -1 29 -15 11z"/>
<path d="M7140 5020 c0 -5 5 -10 10 -10 6 0 10 5 10 10 0 6 -4 10 -10 10 -5 0
-10 -4 -10 -10z"/>
<path d="M7700 4991 c-6 -12 -15 -19 -20 -16 -5 3 3 -12 17 -35 19 -28 29 -36
35 -28 12 20 9 31 -6 25 -20 -8 -31 30 -15 49 6 8 9 17 6 20 -3 3 -10 -4 -17
-15z"/>
<path d="M7155 4980 c-3 -5 1 -10 9 -10 20 0 31 -19 17 -33 -14 -14 -14 -37
-1 -37 6 0 10 9 10 19 0 11 6 21 13 24 8 3 5 11 -10 26 -25 24 -29 25 -38 11z"/>
<path d="M7787 4964 c6 -15 23 -19 23 -5 0 5 -7 11 -14 14 -10 4 -13 1 -9 -9z"/>
<path d="M7720 4960 c0 -5 5 -10 11 -10 5 0 7 5 4 10 -3 6 -8 10 -11 10 -2 0
-4 -4 -4 -10z"/>
<path d="M7820 4966 c0 -2 8 -10 18 -17 15 -13 16 -12 3 4 -13 16 -21 21 -21
13z"/>
<path d="M7152 4948 c-15 -15 -15 -30 1 -52 11 -16 13 -13 13 23 -1 23 -1 41
-1 41 -1 0 -6 -5 -13 -12z"/>
<path d="M7746 4926 c-3 -13 -8 -31 -11 -38 -3 -8 0 -15 7 -15 9 0 14 14 14
39 2 44 -1 48 -10 14z"/>
<path d="M7770 4934 c0 -10 31 -36 37 -31 3 3 -2 13 -10 22 -16 15 -27 19 -27
9z"/>
<path d="M7841 4904 c0 -11 3 -14 6 -6 3 7 2 16 -1 19 -3 4 -6 -2 -5 -13z"/>
<path d="M8208 5193 c46 -2 118 -2 160 0 42 1 5 3 -83 3 -88 0 -123 -2 -77 -3z"/>
<path d="M8532 5193 c48 -2 129 -2 180 0 51 1 12 3 -87 3 -99 0 -141 -2 -93
-3z"/>
<path d="M8305 5070 c-2 -4 22 -7 53 -7 59 -1 54 3 -11 9 -21 2 -40 1 -42 -2z"/>
<path d="M8548 5063 c6 -2 18 -2 25 0 6 3 1 5 -13 5 -14 0 -19 -2 -12 -5z"/>
<path d="M8618 5063 c6 -2 18 -2 25 0 6 3 1 5 -13 5 -14 0 -19 -2 -12 -5z"/>
<path d="M8257 5039 c7 -7 15 -10 18 -7 3 3 -2 9 -12 12 -14 6 -15 5 -6 -5z"/>
<path d="M8187 4963 c-10 -9 -9 -23 2 -23 5 0 11 7 15 15 5 15 -5 20 -17 8z"/>
<path d="M8165 4920 c-3 -5 -1 -10 4 -10 6 0 11 5 11 10 0 6 -2 10 -4 10 -3 0
-8 -4 -11 -10z"/>
<path d="M8570 4759 c0 -5 5 -7 10 -4 6 3 10 8 10 11 0 2 -4 4 -10 4 -5 0 -10
-5 -10 -11z"/>
<path d="M1941 3520 c-1 -3 -3 -38 -5 -77 l-2 -73 65 2 66 2 -57 3 -58 4 0 39
0 39 53 4 52 3 -52 2 c-48 2 -52 4 -56 30 -2 15 -5 25 -6 22z"/>
<path d="M2208 3553 c7 -3 16 -2 19 1 4 3 -2 6 -13 5 -11 0 -14 -3 -6 -6z"/>
<path d="M2156 3528 c-14 -23 -19 -51 -17 -95 1 -22 36 -63 54 -63 5 0 -2 9
-17 21 -34 27 -37 93 -5 133 11 14 16 26 10 26 -6 0 -17 -10 -25 -22z"/>
<path d="M2250 3383 c-38 -21 -40 -24 -15 -19 17 4 39 16 50 27 25 24 20 23
-35 -8z"/>
<path d="M2392 3478 c-2 -72 0 -78 24 -97 33 -26 75 -27 105 -2 20 16 24 30
27 95 2 42 0 76 -4 76 -5 0 -10 -33 -11 -73 -2 -61 -6 -75 -25 -90 -23 -19
-72 -17 -93 4 -5 5 -13 45 -16 87 l-6 77 -1 -77z"/>
<path d="M2753 3539 c20 -12 23 -49 5 -67 -9 -9 -9 -12 0 -12 16 0 31 40 24
60 -6 17 -22 30 -37 30 -5 -1 -2 -5 8 -11z"/>
<path d="M2742 3405 c11 -20 23 -34 25 -31 6 6 -29 66 -39 66 -4 0 2 -16 14
-35z"/>
<path d="M2883 3450 c0 -47 2 -66 4 -42 2 23 2 61 0 85 -2 23 -4 4 -4 -43z"/>
<path d="M3050 3485 c0 -5 9 -21 20 -35 11 -14 20 -20 20 -15 0 6 -9 21 -20
35 -11 14 -20 21 -20 15z"/>
<path d="M3282 3550 c-30 -12 -54 -70 -46 -110 10 -48 22 -45 16 5 -6 55 15
91 61 104 18 5 24 9 12 9 -11 1 -30 -3 -43 -8z"/>
<path d="M3350 3556 c0 -2 11 -11 25 -20 14 -9 25 -13 25 -8 0 5 -11 14 -25
20 -14 6 -25 10 -25 8z"/>
<path d="M3370 3451 c19 -6 25 -13 23 -34 -1 -15 2 -25 8 -22 5 4 9 18 9 33 0
24 -4 28 -32 29 -30 1 -30 1 -8 -6z"/>
<path d="M3950 3540 c0 -5 5 -10 10 -10 6 0 10 5 10 10 0 6 -4 10 -10 10 -5 0
-10 -4 -10 -10z"/>
<path d="M4383 3543 c14 -4 17 -16 17 -79 l0 -74 39 0 c30 0 44 6 55 22 36 51
8 118 -50 118 -19 0 -34 5 -34 10 0 6 -10 9 -22 9 -17 -1 -19 -2 -5 -6z"/>
<path d="M4477 3540 c43 -17 58 -94 27 -138 -12 -18 -25 -22 -64 -22 -56 0
-57 2 -63 100 -2 41 -4 34 -5 -27 l-2 -83 60 0 c66 0 94 17 106 65 12 50 -24
116 -63 114 -14 0 -13 -2 4 -9z"/>
<path d="M4955 3530 c10 -11 23 -20 28 -20 6 0 2 9 -8 20 -10 11 -23 20 -28
20 -6 0 -2 -9 8 -20z"/>
<path d="M4960 3395 c-7 -8 -8 -15 -2 -15 5 0 15 7 22 15 7 8 8 15 2 15 -5 0
-15 -7 -22 -15z"/>
<path d="M5081 3464 c0 -11 3 -14 6 -6 3 7 2 16 -1 19 -3 4 -6 -2 -5 -13z"/>
<path d="M5128 3463 c12 -2 32 -2 45 0 12 2 2 4 -23 4 -25 0 -35 -2 -22 -4z"/>
<path d="M5082 3408 l-2 -38 63 2 62 2 -57 3 c-56 4 -57 5 -61 36 -4 31 -4 31
-5 -5z"/>
<path d="M5280 3514 c0 -8 5 -12 10 -9 6 3 10 10 10 16 0 5 -4 9 -10 9 -5 0
-10 -7 -10 -16z"/>
<path d="M5283 3430 c0 -36 2 -50 4 -32 2 17 2 47 0 65 -2 17 -4 3 -4 -33z"/>
<path d="M5528 3543 c7 -3 16 -2 19 1 4 3 -2 6 -13 5 -11 0 -14 -3 -6 -6z"/>
<path d="M5855 3526 c26 -39 6 -66 -50 -66 -42 0 -44 1 -48 33 -2 17 -4 -4 -4
-48 0 -44 2 -61 4 -37 l4 42 44 0 c49 0 75 19 75 54 0 22 -17 46 -32 46 -5 0
-1 -11 7 -24z"/>
<path d="M5834 3413 c9 -17 20 -35 26 -38 18 -11 10 10 -16 40 l-25 30 15 -32z"/>
<path d="M6023 3413 c15 -2 37 -2 50 0 12 2 0 4 -28 4 -27 0 -38 -2 -22 -4z"/>
<path d="M6212 3463 l-2 -93 63 2 62 2 -57 3 -57 4 -4 87 -3 87 -2 -92z"/>
<path d="M6414 3460 c0 -52 1 -74 3 -47 2 26 2 68 0 95 -2 26 -3 4 -3 -48z"/>
<path d="M6576 3457 c-31 -40 -56 -76 -56 -80 0 -4 12 -7 28 -6 23 0 25 2 10
12 -15 10 -11 18 34 74 28 35 48 66 46 69 -3 2 -31 -28 -62 -69z"/>
<path d="M6588 3373 c7 -3 16 -2 19 1 4 3 -2 6 -13 5 -11 0 -14 -3 -6 -6z"/>
<path d="M6638 3373 c7 -3 16 -2 19 1 4 3 -2 6 -13 5 -11 0 -14 -3 -6 -6z"/>
<path d="M6762 3494 l-2 -41 53 4 c75 6 81 11 15 12 -56 1 -57 1 -61 34 -3 29
-4 28 -5 -9z"/>
<path d="M6762 3408 l-2 -38 63 2 62 2 -57 3 c-56 4 -57 5 -61 36 -4 31 -4 31
-5 -5z"/>
<path d="M6980 3460 l0 -90 59 0 c52 0 62 3 80 26 44 56 11 156 -51 153 l-23
-2 22 -4 c30 -6 63 -49 63 -83 0 -15 -9 -39 -21 -54 -17 -22 -28 -26 -70 -26
l-50 0 3 85 c2 47 0 85 -4 85 -5 0 -8 -40 -8 -90z"/>
<path d="M7007 3536 c-4 -10 -7 -47 -7 -82 l0 -64 45 0 c56 0 81 30 71 85 -7
37 -30 55 -70 55 -13 0 -26 5 -28 12 -3 7 -7 5 -11 -6z"/>
<path d="M7331 3504 c0 -11 3 -14 6 -6 3 7 2 16 -1 19 -3 4 -6 -2 -5 -13z"/>
<path d="M7341 3454 c0 -11 3 -14 6 -6 3 7 2 16 -1 19 -3 4 -6 -2 -5 -13z"/>
<path d="M7330 3390 c0 -11 4 -20 9 -20 5 0 7 9 4 20 -3 11 -7 20 -9 20 -2 0
-4 -9 -4 -20z"/>
<path d="M7542 3478 c-2 -68 1 -80 20 -98 28 -26 68 -26 101 0 23 18 26 29 29
95 2 41 0 75 -4 75 -5 0 -8 -31 -8 -68 0 -77 -11 -99 -55 -107 -52 -11 -69 12
-76 102 l-6 78 -1 -77z"/>
<path d="M7992 3478 c-2 -73 -1 -78 25 -98 21 -17 36 -20 63 -16 55 9 70 36
68 120 l-1 71 -6 -73 c-5 -61 -10 -77 -30 -93 -30 -24 -52 -24 -84 1 -23 18
-27 29 -30 93 l-3 72 -2 -77z"/>
<path d="M8240 3460 c0 -51 4 -90 10 -90 5 0 7 7 4 15 -4 8 -3 26 0 40 6 22
12 25 47 25 55 0 79 15 79 48 0 31 -16 52 -39 51 -10 0 -7 -4 7 -9 25 -11 30
-51 8 -69 -8 -7 -34 -11 -57 -9 -40 3 -43 5 -45 35 -1 18 2 35 7 38 5 4 9 -10
9 -30 0 -36 1 -36 38 -33 32 3 37 7 40 31 3 22 -1 27 -17 27 -12 0 -21 6 -21
13 0 9 -3 8 -9 -2 -6 -9 -11 -10 -15 -2 -4 6 -16 11 -27 11 -17 0 -19 -8 -19
-90z"/>
<path d="M8470 3460 l0 -90 63 2 62 2 -58 3 -57 4 2 85 c2 46 0 84 -4 84 -5 0
-8 -40 -8 -90z"/>
<path d="M8518 3463 c12 -2 32 -2 45 0 12 2 2 4 -23 4 -25 0 -35 -2 -22 -4z"/>
<path d="M4103 3463 c15 -2 37 -2 50 0 12 2 0 4 -28 4 -27 0 -38 -2 -22 -4z"/>
<path d="M4673 3463 c15 -2 37 -2 50 0 12 2 0 4 -28 4 -27 0 -38 -2 -22 -4z"/>
</g>
</svg>
