<?xml version="1.0" standalone="no"?>
<!DOCTYPE svg PUBLIC "-//W3C//DTD SVG 20010904//EN"
 "http://www.w3.org/TR/2001/REC-SVG-20010904/DTD/svg10.dtd">
<svg version="1.0" xmlns="http://www.w3.org/2000/svg"
 width="1024.000000pt" height="1024.000000pt" viewBox="0 0 1024.000000 1024.000000"
 preserveAspectRatio="xMidYMid meet">

<g transform="translate(0.000000,1024.000000) scale(0.100000,-0.100000)"
fill="#000000" stroke="none">
<path d="M0 5120 l0 -5120 5120 0 5120 0 0 5120 0 5120 -5120 0 -5120 0 0
-5120z m2767 2150 c230 -29 450 -122 635 -268 l82 -65 87 -1 c81 -1 90 -3 131
-32 91 -66 122 -183 74 -278 l-24 -47 35 -52 c19 -29 59 -101 88 -162 241
-492 253 -1113 31 -1580 -282 -593 -743 -925 -1287 -925 -308 0 -592 108 -837
319 -68 59 -70 60 -107 50 -44 -12 -94 -5 -145 21 -97 50 -143 172 -106 278
l15 41 -50 83 c-105 174 -176 353 -214 541 -21 104 -23 108 -61 136 -125 92
-123 284 3 375 l49 35 12 100 c46 362 196 700 434 971 300 342 730 513 1155
460z m2153 -875 l0 -495 265 0 265 0 0 -100 0 -100 -375 0 -375 0 0 595 0 595
110 0 110 0 0 -495z m1151 171 c106 -24 175 -79 216 -172 15 -34 18 -82 23
-367 l5 -327 -102 0 -102 0 -7 50 -7 50 -48 -44 c-27 -24 -70 -51 -96 -60 -54
-19 -179 -21 -238 -5 -110 31 -175 121 -175 241 0 80 18 129 63 176 62 65 124
83 336 102 132 11 151 22 151 81 0 78 -77 126 -187 117 -65 -6 -101 -29 -121
-79 -17 -44 -17 -44 -132 -25 -71 11 -75 13 -72 36 6 41 41 113 70 143 34 36
92 67 157 83 67 17 197 17 266 0z m925 -63 c-3 -42 -6 -90 -6 -107 l0 -31 -68
0 c-84 -1 -153 -30 -182 -77 -39 -64 -44 -104 -45 -348 l0 -235 -107 -3 -108
-3 0 431 0 430 105 0 105 0 0 -57 0 -58 25 32 c50 63 137 102 229 103 l59 0
-7 -77z m616 66 c117 -25 219 -104 264 -206 14 -30 24 -56 22 -58 -2 -1 -51
-11 -110 -22 l-106 -19 -16 33 c-34 72 -158 114 -250 83 -47 -15 -110 -88
-127 -147 -52 -180 32 -352 178 -370 88 -10 154 26 213 115 15 23 16 23 107
11 51 -7 98 -16 104 -19 16 -10 -32 -108 -82 -164 -26 -30 -66 -58 -116 -83
-69 -34 -85 -38 -175 -41 -259 -11 -431 124 -469 367 -36 239 95 457 311 517
58 16 184 17 252 3z m902 -15 c67 -26 140 -94 162 -150 9 -24 15 -46 13 -48
-2 -2 -44 -10 -94 -19 -84 -15 -90 -15 -99 0 -32 58 -107 90 -185 79 -107 -15
-146 -100 -68 -151 13 -8 73 -25 133 -36 60 -11 138 -29 173 -41 128 -42 190
-146 162 -273 -36 -160 -176 -244 -391 -232 -118 6 -191 32 -258 92 -47 43
-86 110 -94 164 l-3 24 104 -1 104 -1 12 -28 c24 -55 91 -92 171 -93 155 -1
212 122 82 178 -15 6 -82 23 -148 37 -67 14 -144 35 -171 46 -92 40 -136 120
-126 230 10 116 78 191 212 236 58 19 245 11 309 -13z m-3390 -1502 c114 -174
237 -362 272 -417 l64 -100 0 415 -1 415 106 3 105 3 0 -591 0 -590 -113 0
-114 0 -109 167 c-60 92 -137 210 -171 262 -86 134 -247 381 -248 381 0 0 1
-182 3 -405 l3 -405 -111 0 -110 0 0 590 0 590 108 0 107 0 209 -318z m2516
-272 l0 -590 -105 0 -105 0 0 53 0 54 -42 -40 c-69 -65 -117 -82 -233 -82
-122 1 -171 20 -246 95 -91 91 -137 236 -126 394 11 155 74 275 179 346 73 48
122 63 210 62 77 0 169 -36 214 -83 15 -16 30 -29 33 -29 3 0 5 92 3 205 l-3
205 110 0 111 0 0 -590z m-1320 290 c347 -54 499 -469 273 -748 -127 -156
-383 -200 -572 -97 -70 39 -146 122 -184 202 -27 59 -32 81 -35 169 -3 75 0
117 13 160 64 226 266 351 505 314z m1925 0 c207 -34 345 -210 345 -440 l0
-60 -312 -2 -313 -3 3 -25 c16 -135 135 -218 273 -189 44 9 62 20 99 58 l45
47 87 -21 c48 -11 89 -23 93 -27 21 -21 -75 -136 -156 -186 -102 -62 -294 -70
-409 -16 -161 76 -241 213 -241 414 -1 263 160 445 406 459 11 0 47 -4 80 -9z
m-2832 -1751 c44 -48 35 -89 -28 -134 -20 -14 -20 -14 2 -15 34 0 66 -48 59
-89 -16 -102 -174 -125 -233 -35 -14 22 -14 27 -2 35 21 13 49 11 49 -5 0 -7
6 -19 14 -25 15 -12 107 -21 100 -9 -2 3 0 9 6 13 5 3 10 22 10 40 0 39 -18
53 -74 57 -30 3 -36 7 -36 26 0 18 5 22 33 22 41 0 77 25 77 52 0 57 -85 81
-116 33 -10 -15 -26 -25 -40 -25 -28 0 -31 16 -8 49 40 56 138 62 187 10z
m3042 12 c84 -48 108 -186 48 -278 -28 -42 -88 -66 -155 -61 -70 5 -104 27
-135 88 -56 108 -1 244 108 270 43 10 96 3 134 -19z m-6808 -16 c19 -19 32
-39 28 -45 -10 -17 -49 -11 -62 9 -24 38 -122 33 -138 -7 -9 -25 21 -59 61
-67 120 -22 168 -81 132 -160 -16 -36 -57 -55 -118 -55 -57 0 -101 19 -124 52
-22 31 -20 46 7 50 14 2 31 -7 49 -24 21 -22 35 -28 70 -28 49 0 68 13 68 46
0 29 -15 40 -93 64 -76 24 -107 55 -107 107 0 25 8 43 29 64 27 26 36 29 96
29 63 0 69 -2 102 -35z m373 10 c0 -25 -1 -25 -80 -25 l-80 0 0 -50 0 -50 70
0 c68 0 70 -1 70 -25 0 -24 -2 -25 -70 -25 l-70 0 0 -55 0 -55 80 0 c79 0 80
0 80 -25 l0 -25 -110 0 -110 0 0 180 0 180 110 0 110 0 0 -25z m377 4 c18 -11
40 -34 48 -49 14 -27 13 -28 -10 -34 -20 -5 -31 0 -54 26 -25 28 -36 33 -74
33 -79 0 -126 -69 -112 -162 10 -67 49 -103 110 -103 35 0 51 6 70 25 14 13
25 29 25 35 0 9 47 4 59 -6 9 -8 -31 -54 -41 -48 -7 4 -8 3 -4 -4 13 -22 -54
-52 -115 -52 -104 0 -161 63 -163 178 -1 78 20 123 74 159 45 31 138 32 187 2z
m243 -114 c0 -122 2 -137 20 -155 26 -26 89 -27 121 -1 23 18 24 26 27 155 l4
136 24 0 c27 0 26 13 24 -170 -1 -89 -5 -131 -15 -147 -20 -30 -77 -46 -147
-41 -47 4 -64 10 -86 31 -27 27 -27 30 -30 177 l-3 150 30 0 31 0 0 -135z
m570 113 c63 -43 60 -134 -5 -165 l-34 -16 28 -41 c15 -23 38 -58 50 -78 l23
-38 -34 0 c-30 1 -36 6 -77 75 -39 65 -49 75 -73 75 l-28 0 0 -76 0 -75 -26 3
-26 3 0 173 c1 94 1 174 1 177 1 3 39 5 85 5 70 0 88 -4 116 -22z m400 -3 c0
-25 -1 -25 -80 -25 l-80 0 0 -50 0 -50 43 -1 c23 -1 54 0 70 1 23 1 27 -2 27
-24 0 -25 -1 -26 -70 -26 l-70 0 0 -55 0 -55 80 0 c79 0 80 0 80 -25 l0 -25
-110 0 -110 0 0 180 0 180 110 0 110 0 0 -25z m393 -117 c29 -118 36 -138 42
-113 8 34 53 210 61 238 4 11 15 17 34 17 28 0 28 -1 61 -135 18 -74 35 -132
37 -130 2 2 18 61 36 132 32 127 32 128 63 131 l30 3 -52 -178 c-49 -166 -54
-178 -78 -181 -29 -4 -24 -14 -67 153 -31 120 -40 144 -40 109 -1 -10 -16 -73
-33 -139 -31 -112 -35 -120 -59 -123 -30 -4 -26 -12 -83 193 -20 72 -38 138
-41 148 -4 13 1 17 24 17 l30 0 35 -142z m687 117 c0 -25 -1 -25 -80 -25 l-80
0 0 -50 0 -50 60 -1 c86 -2 85 -2 88 -26 3 -22 0 -23 -72 -23 l-76 0 0 -55 0
-55 80 0 c79 0 80 0 80 -25 l0 -26 -107 3 -108 3 -2 170 c0 94 1 173 4 178 2
4 51 7 109 7 l104 0 0 -25z m327 5 c40 -24 54 -77 29 -115 -9 -14 -21 -25 -26
-25 -6 0 -10 -4 -10 -10 0 -5 7 -10 15 -10 25 0 46 -45 43 -91 -5 -66 -36 -84
-151 -84 l-92 0 -3 178 -2 177 82 0 c65 0 90 -4 115 -20z m812 -122 c25 -76
48 -138 51 -138 3 0 25 63 49 140 l45 140 32 0 33 0 -46 -127 c-25 -71 -53
-150 -62 -178 -16 -44 -22 -50 -48 -53 -35 -3 -28 -16 -113 218 -21 58 -41
113 -45 123 -7 16 -3 18 25 15 33 -3 33 -3 79 -140z m509 -20 c33 -90 64 -171
67 -181 7 -16 3 -18 -25 -15 -29 3 -35 8 -48 46 l-14 43 -76 -3 -75 -3 -15
-42 c-12 -38 -17 -43 -43 -43 -16 0 -29 2 -29 5 0 4 93 261 119 328 9 22 17
27 45 27 l34 0 60 -162z m232 7 l0 -155 80 0 c79 0 80 0 80 -25 l0 -25 -105 0
-105 0 0 180 0 180 25 0 25 0 0 -155z m340 -25 l0 -180 -25 0 -25 0 0 180 0
180 25 0 25 0 0 -180z m350 158 c69 -36 85 -65 85 -158 0 -64 -4 -84 -21 -107
-37 -50 -79 -67 -176 -71 l-88 -4 0 181 0 181 78 0 c61 0 87 -5 122 -22z m415
-50 c15 -40 44 -122 66 -181 l39 -108 -32 3 c-27 3 -33 9 -47 46 l-15 42 -77
0 -76 0 -13 -45 c-11 -40 -16 -45 -41 -45 -16 0 -29 3 -29 8 0 4 28 85 62 179
l63 173 36 0 c36 0 37 -1 64 -72z m415 47 c0 -24 -3 -25 -55 -25 l-55 0 0
-155 0 -155 -25 0 -25 0 0 155 0 155 -57 0 c-55 0 -58 1 -58 25 l0 25 138 0
137 0 0 -25z m770 7 c24 -12 38 -28 46 -51 12 -38 4 -87 -14 -84 -6 2 -9 -3
-6 -11 3 -8 -7 -18 -25 -26 -29 -12 -29 -13 -15 -36 9 -13 12 -29 8 -35 -4 -7
-3 -9 4 -6 6 4 24 -15 41 -43 l31 -50 -33 0 c-30 0 -36 6 -77 75 -38 65 -48
75 -72 75 l-28 0 0 -76 0 -75 -27 3 -27 3 1 160 c1 88 2 168 2 178 1 15 12 17
79 17 53 0 88 -5 112 -18z"/>
<path d="M2425 7114 c-249 -44 -467 -164 -656 -360 -76 -80 -179 -216 -196
-260 -5 -13 -3 -15 13 -6 57 30 176 42 424 42 l250 0 0 -75 0 -75 -50 0 -50 0
0 -635 0 -635 285 0 285 0 0 -90 0 -90 -385 0 -385 0 0 725 0 725 -92 0 c-109
0 -202 -20 -270 -57 -67 -37 -153 -130 -188 -206 -35 -74 -75 -224 -85 -317
l-7 -65 46 -38 c62 -51 88 -104 87 -177 0 -32 -6 -73 -14 -92 -18 -43 -72
-105 -98 -113 -22 -7 -25 -45 -8 -127 27 -134 117 -354 190 -466 l33 -51 57 6
c33 3 64 1 75 -5 16 -10 32 2 115 84 l96 96 97 1 c53 1 96 0 96 -3 0 -3 -61
-69 -135 -148 l-134 -142 14 -35 c18 -42 19 -94 3 -146 -10 -34 -9 -42 8 -60
43 -48 186 -144 289 -195 379 -186 821 -141 1166 120 106 80 219 198 219 229
0 15 -30 51 -95 113 l-94 90 54 54 55 54 27 -24 c16 -14 58 -53 95 -89 l67
-64 41 64 c96 148 169 329 212 524 20 87 23 130 23 330 0 178 -4 251 -18 322
-38 202 -112 400 -208 563 -52 88 -54 90 -85 84 -17 -3 -50 -1 -73 6 l-42 11
-152 -156 -152 -156 -93 3 -93 3 195 206 194 205 -11 48 c-8 35 -8 62 1 104
10 48 10 58 -5 74 -25 28 -182 132 -251 167 -207 104 -467 144 -687 105z m382
-1116 c33 -51 135 -217 228 -368 92 -151 172 -279 177 -285 7 -7 9 116 6 368
l-5 377 104 0 104 0 -3 -577 -3 -578 -90 -3 -91 -3 -249 406 c-138 223 -255
413 -262 423 -10 14 -12 -33 -13 -230 l0 -248 -100 0 -100 0 0 405 0 405 118
0 118 0 61 -92z"/>
<path d="M6055 6091 c-11 -5 -60 -12 -110 -16 -141 -11 -195 -43 -195 -115 0
-76 57 -123 150 -123 117 0 180 63 188 189 5 75 3 79 -33 65z"/>
<path d="M7175 4881 c-114 -29 -167 -110 -166 -254 0 -45 7 -104 15 -131 31
-103 124 -155 241 -136 33 5 61 10 62 10 1 0 18 14 38 31 45 39 65 106 65 214
0 137 -32 206 -115 248 -39 19 -102 27 -140 18z"/>
<path d="M6192 4881 c-55 -14 -106 -55 -137 -112 -27 -49 -30 -62 -30 -149 0
-104 15 -147 71 -204 89 -89 244 -77 325 24 38 47 63 148 54 214 -8 60 -37
131 -68 164 -48 52 -145 80 -215 63z"/>
<path d="M8078 4887 c-20 -12 -46 -34 -57 -49 -20 -24 -51 -98 -51 -119 0 -5
92 -9 205 -9 189 0 205 1 205 18 -1 23 -37 102 -58 125 -53 59 -175 76 -244
34z"/>
<path d="M5400 3271 c0 -6 4 -13 10 -16 6 -3 7 1 4 9 -7 18 -14 21 -14 7z"/>
<path d="M5404 3038 l-19 -23 23 19 c12 11 22 21 22 23 0 8 -8 2 -26 -19z"/>
<path d="M5244 3032 c4 -3 14 -7 22 -8 9 -1 13 0 10 4 -4 3 -14 7 -22 8 -9 1
-13 0 -10 -4z"/>
<path d="M8440 3317 c0 -3 12 -12 26 -22 15 -9 23 -12 20 -6 -7 11 -46 35 -46
28z"/>
<path d="M8325 3300 c-40 -16 -68 -58 -73 -110 -8 -91 36 -150 113 -150 128 0
160 205 40 256 -38 16 -51 16 -80 4z"/>
<path d="M1635 3289 c-4 -6 -5 -12 -2 -15 2 -3 7 2 10 11 7 17 1 20 -8 4z"/>
<path d="M1630 3150 c0 -5 5 -10 11 -10 5 0 7 5 4 10 -3 6 -8 10 -11 10 -2 0
-4 -4 -4 -10z"/>
<path d="M2407 3287 c-3 -8 -2 -20 3 -26 5 -9 8 -4 8 13 0 29 -3 32 -11 13z"/>
<path d="M2610 3046 c0 -2 8 -10 18 -17 15 -13 16 -12 3 4 -13 16 -21 21 -21
13z"/>
<path d="M3206 3303 c-4 -4 -38 -6 -77 -5 l-69 3 0 -60 0 -61 48 0 c67 0 95
22 90 69 -3 25 0 40 11 48 9 7 13 13 10 13 -3 0 -9 -3 -13 -7z"/>
<path d="M4061 3074 c0 -11 3 -14 6 -6 3 7 2 16 -1 19 -3 4 -6 -2 -5 -13z"/>
<path d="M4880 3250 l0 -51 52 3 c44 3 54 7 65 28 20 41 -3 64 -66 68 l-51 3
0 -51z"/>
<path d="M4898 3173 c12 -2 32 -2 45 0 12 2 2 4 -23 4 -25 0 -35 -2 -22 -4z"/>
<path d="M4880 3100 l0 -60 48 0 c27 0 57 7 70 16 53 37 5 104 -74 104 l-44 0
0 -60z"/>
<path d="M5019 3053 c-13 -16 -12 -17 4 -4 16 13 21 21 13 21 -2 0 -10 -8 -17
-17z"/>
<path d="M5816 3155 c-9 -26 -7 -32 5 -12 6 10 9 21 6 23 -2 3 -7 -2 -11 -11z"/>
<path d="M6217 3217 c-15 -41 -27 -80 -27 -86 0 -7 22 -11 55 -11 30 0 55 4
55 8 0 4 -13 43 -28 86 l-29 78 -26 -75z"/>
<path d="M6530 3020 c0 -5 5 -10 11 -10 5 0 7 5 4 10 -3 6 -8 10 -11 10 -2 0
-4 -4 -4 -10z"/>
<path d="M7111 3170 l2 -130 42 0 c90 0 137 42 139 124 2 91 -42 136 -134 136
l-51 0 2 -130z"/>
<path d="M7606 3280 c-3 -8 -14 -40 -25 -70 -10 -30 -22 -63 -26 -72 -6 -16 0
-18 55 -18 70 0 67 -12 25 108 -14 41 -25 61 -29 52z"/>
<path d="M8728 3323 c7 -3 16 -2 19 1 4 3 -2 6 -13 5 -11 0 -14 -3 -6 -6z"/>
<path d="M8720 3240 l0 -60 50 0 c57 0 90 24 90 63 0 38 -30 57 -88 57 l-52 0
0 -60z"/>
<path d="M8804 3128 c-4 -7 -4 -10 1 -6 4 4 14 0 22 -10 13 -15 13 -15 3 6
-12 25 -16 27 -26 10z"/>
</g>
</svg>
